<?xml version="1.0" standalone="no"?>
<!DOCTYPE svg PUBLIC "-//W3C//DTD SVG 20010904//EN"
 "http://www.w3.org/TR/2001/REC-SVG-20010904/DTD/svg10.dtd">
<svg version="1.0" xmlns="http://www.w3.org/2000/svg"
 width="591.000000pt" height="725.000000pt" viewBox="0 0 591.000000 725.000000"
 preserveAspectRatio="xMidYMid meet">
<metadata>
Created by potrace 1.16, written by Peter Selinger 2001-2019
</metadata>
<g transform="translate(0.000000,725.000000) scale(0.100000,-0.100000)"
fill="#000000" stroke="none">
<path d="M2615 7138 c-27 -4 -95 -11 -150 -17 -183 -18 -199 -22 -300 -70 -55
-27 -111 -51 -125 -54 -14 -4 -53 -30 -86 -59 -79 -70 -101 -83 -107 -60 -2 9
0 27 5 40 4 13 4 22 -2 22 -6 0 -10 -6 -10 -14 0 -27 -95 -192 -115 -200 -8
-3 -15 -15 -15 -27 0 -28 -47 -129 -60 -129 -21 0 -8 -27 36 -74 24 -28 43
-55 40 -62 -5 -12 41 -34 70 -34 7 0 25 -5 41 -12 15 -6 37 -10 48 -9 17 3 17
1 6 -13 -19 -23 -44 -167 -31 -180 6 -6 10 -25 10 -43 0 -54 16 -38 34 35 17
66 57 165 85 210 10 16 16 19 21 11 6 -8 10 -8 16 2 5 8 23 21 39 29 17 8 32
18 35 21 7 10 63 14 76 6 14 -8 179 -11 192 -4 5 4 74 18 154 32 184 32 288
33 288 3 0 -5 -4 -7 -9 -4 -5 4 -22 1 -38 -5 -40 -15 -16 -26 93 -39 58 -7 96
-17 109 -29 34 -30 120 -78 152 -85 17 -4 34 -14 37 -21 3 -8 22 -25 43 -39
78 -51 128 -108 151 -172 12 -34 22 -73 22 -88 0 -15 6 -29 14 -32 9 -3 15
-32 20 -87 4 -45 18 -126 32 -182 33 -133 34 -145 20 -207 -7 -30 -11 -59 -8
-66 2 -7 -1 -12 -7 -12 -6 0 -8 -7 -4 -16 3 -8 1 -25 -5 -37 -6 -12 -13 -38
-14 -57 -4 -41 -32 -54 -41 -19 -6 22 -7 22 -25 6 -22 -20 -36 -114 -20 -134
7 -9 5 -17 -5 -28 -21 -21 -37 -19 -37 5 0 25 -18 26 -27 3 -4 -10 -11 -21
-16 -24 -18 -12 3 -30 22 -20 27 15 60 3 54 -20 -3 -10 -8 -19 -12 -19 -4 0
-17 -9 -29 -20 -12 -11 -27 -19 -34 -18 -7 2 -14 -7 -16 -19 -5 -32 -32 -39
-32 -8 0 14 -4 25 -9 25 -5 0 -11 8 -13 18 -3 11 -8 4 -17 -20 -11 -35 -31
-52 -31 -28 0 6 -9 10 -20 10 -11 0 -20 -5 -20 -10 0 -14 -40 -57 -40 -44 -1
5 -7 -2 -14 -15 -8 -15 -12 -40 -8 -63 5 -37 4 -38 -27 -38 -22 0 -31 -5 -31
-16 0 -9 -9 -27 -20 -41 -11 -14 -20 -33 -20 -42 -1 -24 -31 -58 -70 -75 -47
-22 -76 -40 -97 -59 -24 -20 -86 -31 -110 -19 -14 8 -24 5 -42 -9 -13 -11 -31
-17 -38 -14 -8 3 -24 -1 -35 -9 -11 -8 -27 -12 -34 -9 -8 3 -14 1 -14 -5 0
-26 -90 -17 -111 12 -13 17 -58 -3 -65 -28 -7 -30 -33 -38 -65 -20 -13 7 -30
13 -37 14 -8 0 -21 9 -30 20 -15 18 -20 19 -35 8 -44 -32 -22 -122 40 -161 67
-42 68 -46 65 -187 -3 -107 1 -148 23 -256 32 -153 48 -197 79 -214 13 -7 29
-23 35 -36 6 -13 15 -24 21 -24 7 0 8 6 0 19 -12 23 -5 47 16 55 10 4 13 13 9
27 -6 19 -4 20 30 13 l37 -7 -7 49 c-3 27 -8 63 -11 81 -5 39 3 63 22 63 8 0
14 4 14 8 0 20 64 35 185 42 71 5 133 6 137 4 3 -2 19 1 35 7 15 6 37 13 48
15 11 2 27 14 36 26 12 16 28 22 53 22 20 0 36 4 36 9 0 4 -4 5 -10 2 -6 -3
-10 5 -10 19 0 14 5 28 10 31 6 3 10 1 10 -6 0 -7 4 -8 13 -2 6 5 23 8 36 7
16 -1 25 5 29 18 3 13 10 17 23 13 13 -4 19 -1 19 9 0 9 -5 16 -11 16 -6 0 -4
7 5 15 8 8 21 15 29 15 8 0 18 7 21 16 3 8 11 12 17 9 6 -4 13 2 16 14 3 12 9
21 13 21 4 0 10 9 13 21 3 12 10 18 17 14 6 -4 9 -13 6 -21 -3 -8 -2 -14 2
-14 4 0 8 -17 9 -37 1 -20 11 -50 23 -65 12 -16 19 -36 16 -44 -3 -8 1 -14 9
-14 20 0 29 -19 16 -34 -9 -10 -8 -15 4 -20 20 -7 19 -26 -1 -26 -14 0 -14 -2
0 -15 16 -17 32 -97 22 -114 -11 -17 34 -24 53 -7 12 11 20 13 28 5 15 -15 74
16 67 34 -4 10 3 12 26 9 21 -3 30 0 30 9 1 8 7 -1 15 -18 10 -24 21 -33 40
-34 14 -1 31 -2 38 -3 6 -1 17 -7 22 -14 14 -18 47 41 80 142 27 82 35 229 15
266 -6 11 -29 24 -51 30 -26 7 -59 29 -92 61 -27 27 -54 49 -58 49 -4 0 -11
-9 -14 -20 -3 -11 -9 -20 -13 -20 -12 1 -41 74 -43 110 -2 19 -6 43 -11 53 -5
9 -5 23 -1 30 11 18 12 32 3 72 -4 19 -4 77 1 128 10 95 11 108 9 168 -1 20 6
51 14 70 16 34 16 34 11 -39 -5 -70 -4 -72 14 -62 27 14 60 90 74 170 l12 64
-50 26 -50 25 -3 75 c-2 41 -7 77 -11 80 -15 10 -31 73 -31 123 0 53 32 117
58 117 15 0 52 -36 52 -52 1 -7 10 4 21 24 18 35 21 37 44 26 31 -14 39 -7 31
26 -4 15 -14 26 -29 28 -38 5 -33 40 13 81 44 40 64 44 125 23 26 -9 44 -11
51 -5 18 15 -6 56 -41 73 -44 21 -144 -7 -176 -49 -36 -46 -59 -58 -59 -30 0
8 4 15 9 15 5 0 13 10 17 22 9 31 84 97 116 104 35 8 39 20 44 139 3 55 9 122
14 148 6 26 10 98 10 160 0 105 -2 115 -34 187 -19 41 -37 87 -40 101 -10 47
-115 175 -211 257 -127 110 -274 182 -369 182 -40 0 -212 28 -308 49 -26 6
-59 8 -75 5 -15 -3 -48 -1 -73 3 -25 5 -67 5 -95 1z"/>
<path d="M2775 6098 c-17 -5 -61 -15 -100 -23 -38 -8 -95 -19 -125 -25 -75
-16 -120 -45 -120 -77 0 -16 4 -23 13 -20 10 3 14 -11 15 -56 2 -34 7 -64 13
-68 6 -3 16 -17 23 -30 6 -13 23 -30 37 -36 14 -7 34 -30 43 -51 24 -52 88
-77 173 -66 51 7 55 8 27 14 -43 9 -56 20 -49 38 3 8 1 19 -6 22 -8 6 -8 13 0
28 16 30 14 62 -4 62 -22 0 -18 17 7 34 29 21 40 20 109 -5 58 -21 59 -22 59
-61 l0 -39 28 20 c16 11 50 25 76 32 31 8 53 20 64 37 15 23 15 25 -7 43 -41
33 -100 43 -253 44 -82 0 -148 3 -148 7 0 23 16 38 39 38 15 0 65 11 111 24
54 16 87 21 91 15 3 -6 17 -7 30 -4 14 3 44 2 67 -3 53 -12 82 -5 82 19 0 25
-10 30 -145 64 -90 23 -128 29 -150 23z"/>
<path d="M1995 5920 c-44 -3 -89 -10 -101 -14 -21 -8 -54 -82 -54 -123 0 -18
5 -21 35 -20 19 1 35 5 35 9 0 11 80 30 99 23 14 -6 14 -8 -3 -21 -11 -8 -30
-14 -42 -14 -36 0 -75 -45 -69 -78 11 -52 48 -112 66 -107 10 3 19 -1 23 -10
3 -9 9 -14 14 -11 4 2 14 1 22 -4 12 -7 12 -10 -3 -16 -9 -3 -17 -14 -17 -25
0 -14 7 -18 31 -16 22 1 43 15 76 50 25 26 43 51 39 54 -3 3 -12 0 -20 -6 -9
-8 -27 -10 -45 -6 -29 6 -31 9 -30 55 1 41 5 49 24 54 12 3 37 1 55 -4 18 -5
37 -7 41 -4 5 3 6 -2 3 -10 -10 -26 9 -17 36 16 16 20 25 44 25 67 0 40 -30
111 -47 111 -6 0 -26 14 -45 30 -18 17 -41 29 -51 28 -9 -1 -53 -5 -97 -8z"/>
<path d="M2527 5350 c-21 -30 -59 -33 -121 -9 -29 11 -76 19 -108 19 -46 0
-62 -5 -88 -26 -25 -22 -37 -25 -69 -20 -24 4 -44 1 -56 -8 -16 -12 -17 -17
-6 -45 8 -17 17 -31 22 -31 21 0 6 -57 -28 -108 -99 -143 -94 -130 -87 -207 4
-38 14 -80 22 -93 l15 -23 22 21 c12 11 31 20 43 20 15 0 27 11 39 37 22 46
78 76 147 79 28 1 69 7 90 12 25 7 46 7 57 1 10 -5 25 -6 33 -3 18 7 22 -11 6
-21 -6 -4 -8 -11 -5 -16 4 -5 -1 -9 -9 -9 -19 0 -57 -40 -50 -52 3 -4 -12 -8
-33 -8 -21 -1 -75 -2 -120 -3 -46 -2 -83 1 -83 5 0 13 -30 9 -31 -4 -2 -22 3
-43 11 -48 4 -3 7 -24 7 -47 -2 -57 18 -76 85 -79 29 -2 58 2 65 8 7 6 20 7
29 4 9 -3 30 0 47 8 18 8 44 17 59 20 17 4 34 18 42 35 9 16 23 32 33 35 16 7
16 9 -5 25 -29 22 -22 39 31 72 47 29 170 54 216 44 39 -8 56 1 39 22 -10 12
-8 18 12 33 l25 19 -23 30 c-12 17 -22 36 -22 44 0 20 -46 67 -67 68 -10 1
-45 3 -77 5 -32 2 -65 9 -72 14 -6 6 -24 8 -38 4 -20 -5 -26 -2 -26 9 0 9 -17
24 -37 34 -21 9 -41 21 -44 26 -3 5 -9 1 -13 -8 -5 -14 -15 -17 -51 -12 -39 4
-48 1 -63 -18 -20 -25 -22 -82 -3 -77 7 1 33 4 58 7 25 3 48 7 50 9 3 2 17 1
32 -4 15 -4 35 -4 44 1 12 7 23 2 44 -19 15 -16 45 -35 65 -42 42 -16 42 -33
0 -20 -63 18 -152 22 -201 9 -40 -10 -53 -10 -65 0 -10 9 -25 11 -43 6 -28 -8
-94 -7 -103 1 -2 3 8 16 22 29 33 30 42 58 29 83 -9 17 -3 25 47 59 36 25 74
42 101 46 38 5 43 3 51 -19 11 -28 25 -30 78 -8 47 18 67 49 54 83 l-9 24 -16
-23z"/>
<path d="M3535 3430 c-10 -11 -23 -20 -29 -20 -6 0 -33 -18 -60 -40 -30 -25
-58 -40 -76 -40 -21 0 -44 -17 -98 -72 -39 -40 -98 -93 -131 -118 -54 -40 -76
-68 -155 -192 -11 -16 -13 -28 -7 -32 6 -4 21 9 33 28 26 40 44 45 53 16 3
-11 18 -23 31 -26 47 -12 94 68 69 116 -13 25 -10 50 7 50 5 0 16 7 24 15 9 8
28 15 44 15 15 0 30 7 34 15 3 8 23 23 46 32 22 10 40 21 40 25 0 5 10 8 23 8
36 0 128 48 162 84 29 31 38 34 96 37 56 2 74 -2 139 -33 74 -35 202 -78 229
-78 22 0 -6 27 -37 35 -26 6 -115 68 -153 106 -27 27 -69 46 -150 69 -92 25
-111 25 -134 0z"/>
<path d="M2346 3271 c-3 -4 -2 -21 3 -37 4 -16 6 -35 4 -41 -3 -8 5 -13 21
-13 27 0 161 -49 211 -77 107 -61 134 -75 165 -89 19 -9 47 -23 63 -31 15 -8
27 -10 27 -4 0 11 -107 101 -121 101 -4 0 -28 13 -51 29 -24 15 -72 45 -108
67 -36 21 -71 43 -77 50 -7 7 -30 18 -50 24 -21 7 -42 16 -47 21 -13 11 -33
12 -40 0z"/>
<path d="M5026 2294 c-3 -9 -6 -32 -6 -51 0 -56 -21 -166 -37 -190 -8 -11 -10
-23 -6 -25 4 -3 3 -3 -4 -2 -7 2 -25 -3 -40 -11 -26 -13 -41 -11 -162 21 -74
19 -137 32 -140 28 -8 -8 50 -54 69 -54 30 -1 59 -35 66 -78 6 -39 5 -44 -15
-49 -12 -3 -20 -11 -18 -17 2 -6 -2 -15 -10 -21 -11 -8 -10 -23 7 -85 26 -93
30 -141 13 -147 -7 -3 -13 -11 -13 -19 0 -8 -11 -14 -27 -15 -16 0 -22 -3 -15
-6 10 -4 9 -9 -4 -24 -9 -10 -15 -19 -12 -19 3 0 2 -18 -2 -39 -5 -31 -4 -38
7 -34 8 3 13 -2 13 -16 0 -12 5 -21 10 -21 6 0 10 -14 10 -31 0 -22 4 -30 14
-26 7 3 18 1 24 -5 15 -15 82 12 82 33 0 10 -4 21 -10 24 -18 11 -10 25 15 25
27 0 34 15 10 24 -18 7 -20 47 -3 64 7 7 9 12 5 12 -4 0 3 19 16 43 26 47 47
113 47 146 0 12 4 29 8 39 43 87 52 109 52 124 0 9 10 38 21 65 12 26 23 68
25 93 10 120 25 220 35 226 13 8 11 21 -5 27 -8 3 -17 -1 -20 -9z"/>
<path d="M1140 1785 c0 -14 4 -33 9 -43 5 -9 17 -35 26 -57 27 -66 39 -89 57
-114 10 -13 18 -33 18 -44 0 -19 2 -19 14 -7 8 8 23 38 34 65 11 28 23 57 26
66 10 22 -52 81 -76 73 -20 -6 -38 23 -38 62 0 23 -2 25 -15 14 -12 -10 -19
-10 -27 -2 -19 19 -28 14 -28 -13z"/>
<path d="M4759 1228 c-3 -36 4 -104 11 -113 4 -5 22 -55 40 -110 28 -84 33
-113 32 -185 -3 -158 -29 -385 -57 -500 -18 -69 -35 -124 -50 -152 -9 -18 -18
-48 -21 -66 -4 -30 -3 -31 16 -20 11 7 20 23 20 35 0 33 17 37 25 5 3 -15 16
-48 28 -74 l22 -46 165 0 c91 0 155 2 144 5 -18 3 -21 9 -15 31 6 20 14 27 32
27 17 0 23 -5 21 -17 -3 -17 1 -19 36 -22 7 -1 17 -8 23 -16 8 -13 11 -13 20
3 5 9 17 17 24 17 8 0 15 5 15 11 0 7 8 18 18 25 13 11 14 15 4 22 -10 7 -10
11 2 22 9 7 13 16 10 21 -3 5 0 9 6 9 8 0 10 13 5 41 -6 36 -5 41 14 46 14 3
21 13 21 29 0 13 5 24 11 24 16 0 40 27 37 41 -2 7 6 15 17 17 11 2 26 11 32
20 12 14 14 14 31 -2 11 -9 26 -14 35 -10 11 4 19 0 23 -10 3 -9 12 -16 18
-16 16 0 20 -69 5 -86 -7 -9 -3 -20 16 -39 14 -16 25 -36 25 -46 0 -10 8 -24
18 -31 9 -7 17 -20 17 -28 0 -8 10 -16 23 -18 22 -3 33 -42 12 -42 -5 0 -10
-7 -10 -15 0 -12 14 -15 65 -15 64 0 65 0 65 28 0 15 -14 104 -30 197 -50 280
-58 342 -75 535 -25 284 -27 296 -50 292 -11 -2 -27 -10 -35 -18 -15 -12 -88
-43 -117 -48 -7 -1 -16 -5 -19 -9 -4 -4 -15 -7 -24 -7 -10 0 -23 -7 -30 -15
-7 -8 -23 -15 -36 -15 -15 0 -24 -6 -24 -16 0 -11 6 -14 20 -9 15 5 18 3 14
-9 -4 -11 0 -16 15 -16 24 0 26 -11 10 -43 -9 -16 -9 -22 0 -25 6 -2 11 -14
11 -28 0 -16 4 -22 14 -18 17 6 19 -80 4 -145 -8 -31 -8 -49 0 -61 8 -13 7
-21 -1 -29 -6 -6 -8 -11 -4 -11 4 0 1 -13 -8 -30 -8 -16 -15 -46 -15 -67 -1
-31 -3 -35 -13 -23 -17 21 -41 25 -34 5 4 -8 2 -15 -3 -15 -5 0 -10 -8 -13
-17 -3 -14 -6 -12 -15 10 -7 17 -19 27 -32 27 -12 0 -20 7 -20 16 0 22 -66 16
-102 -9 -31 -21 -52 -15 -43 13 3 11 0 20 -10 24 -8 3 -20 17 -25 32 -6 15
-13 24 -17 21 -10 -10 -40 11 -45 31 -4 15 -1 18 13 15 11 -3 19 0 19 7 0 6
-9 14 -20 17 -22 6 -27 42 -8 61 9 9 9 12 0 12 -7 0 -12 12 -12 26 0 14 -4 23
-8 20 -8 -5 -11 12 -15 76 -1 20 -6 40 -10 44 -15 15 -6 34 17 34 22 0 36 16
36 41 0 5 -14 9 -30 9 -17 0 -38 4 -48 9 -112 55 -122 64 -122 111 0 41 12 56
50 62 22 3 20 6 -24 27 -52 24 -93 62 -107 99 -9 24 -28 30 -30 10z"/>
<path d="M1178 1208 c-36 -10 -52 -28 -25 -28 10 0 13 -20 13 -82 -1 -71 -4
-85 -21 -98 -11 -8 -22 -15 -25 -16 -3 0 -24 -4 -47 -9 -44 -8 -55 -21 -28
-31 8 -4 12 -11 9 -16 -4 -6 -9 -6 -14 2 -5 8 -10 9 -14 2 -3 -6 1 -17 9 -25
21 -22 19 -27 -11 -27 -25 0 -26 -2 -20 -35 5 -26 3 -40 -9 -51 -8 -8 -16 -27
-17 -42 0 -15 -2 -31 -3 -37 -2 -5 -3 -16 -4 -22 0 -7 -10 -13 -22 -13 -19 0
-19 -1 -5 -16 21 -20 20 -44 0 -44 -14 0 -15 -7 -10 -41 7 -46 -6 -71 -32 -62
-14 6 -15 4 -5 -8 7 -9 9 -19 4 -25 -5 -5 -11 -19 -13 -32 -1 -12 -7 -22 -13
-22 -5 1 -12 -9 -15 -22 -4 -15 -14 -24 -31 -26 -16 -2 -29 -13 -37 -31 -7
-15 -20 -36 -30 -47 -10 -10 -21 -27 -25 -36 -3 -10 -14 -18 -24 -18 -16 -1
-16 -2 -2 -13 24 -19 29 -44 12 -58 -28 -24 -31 -52 -11 -98 17 -41 17 -45 2
-62 -17 -18 -12 -19 168 -19 l186 0 6 58 c9 72 41 275 66 412 63 352 79 465
85 603 3 81 2 147 -2 146 -4 -1 -25 -6 -45 -11z"/>
<path d="M379 1093 c0 -27 -2 -66 -4 -88 -2 -22 -6 -69 -9 -105 -3 -36 -12
-130 -20 -210 -8 -80 -17 -192 -21 -250 -4 -58 -13 -157 -21 -220 -8 -63 -14
-138 -14 -167 l0 -53 46 0 c25 0 43 4 40 9 -3 5 2 15 11 22 15 12 16 11 11 -8
-4 -13 -2 -23 3 -23 5 0 9 9 9 19 0 11 5 23 11 26 6 4 8 13 5 21 -3 8 0 14 5
14 6 0 9 8 7 18 -3 12 2 24 14 31 11 7 17 15 14 18 -3 3 -17 -2 -31 -11 -22
-14 -25 -15 -25 -1 0 8 4 15 9 15 8 0 41 54 41 67 0 1 -8 3 -17 4 -14 0 -12 3
5 10 21 8 23 15 21 56 -1 27 3 58 9 70 7 12 12 31 12 42 0 11 9 25 21 31 11 7
18 14 15 17 -3 4 2 15 11 26 19 21 26 97 9 97 -6 0 -5 5 2 12 15 15 16 32 2
23 -14 -9 -12 39 2 53 13 13 8 15 -42 16 -18 1 -25 7 -25 21 0 16 8 21 37 23
36 3 37 4 31 35 -3 18 -17 49 -31 70 -24 36 -25 40 -8 49 13 7 15 13 6 23 -8
9 -9 26 -4 47 4 18 8 36 8 40 1 3 4 10 9 14 4 4 7 15 7 25 0 21 20 36 29 21 4
-7 12 -6 24 3 16 12 16 13 -5 18 -13 4 -24 5 -24 4 -1 -1 -10 6 -21 15 -16 15
-131 57 -155 58 -5 0 -8 -21 -9 -47z"/>
</g>
</svg>
